<svg width="29" height="25" viewBox="0 0 29 25" fill="none" xmlns="http://www.w3.org/2000/svg">
<g clip-path="url(#clip0_72_704)">
<path d="M-89.3708 26.16C-90.1708 26.16 -90.8508 26.1067 -91.4108 26V22C-90.9841 22.1067 -90.5041 22.16 -89.9708 22.16C-89.0908 22.16 -88.4374 21.9467 -88.0108 21.52C-87.5841 21.0667 -87.3708 20.3867 -87.3708 19.48V-2H-82.9708V19.36C-82.9708 21.6533 -83.5041 23.36 -84.5708 24.48C-85.6108 25.6 -87.2108 26.16 -89.3708 26.16ZM-73.4648 26.4C-75.6248 26.4 -77.2782 25.7867 -78.4248 24.56C-79.5715 23.3333 -80.1448 21.6 -80.1448 19.36V4.64C-80.1448 2.4 -79.5715 0.666665 -78.4248 -0.560001C-77.2782 -1.78667 -75.6248 -2.4 -73.4648 -2.4C-71.3048 -2.4 -69.6515 -1.78667 -68.5048 -0.560001C-67.3582 0.666665 -66.7848 2.4 -66.7848 4.64V19.36C-66.7848 21.6 -67.3582 23.3333 -68.5048 24.56C-69.6515 25.7867 -71.3048 26.4 -73.4648 26.4ZM-73.4648 22.4C-71.9448 22.4 -71.1848 21.48 -71.1848 19.64V4.36C-71.1848 2.52 -71.9448 1.6 -73.4648 1.6C-74.9848 1.6 -75.7448 2.52 -75.7448 4.36V19.64C-75.7448 21.48 -74.9848 22.4 -73.4648 22.4ZM-63.8092 -2H-59.4092V26H-63.8092V-2ZM-56.1139 -2H-50.5939L-46.3139 14.76H-46.2339V-2H-42.3139V26H-46.8339L-52.1139 5.56H-52.1939V26H-56.1139V-2ZM-32.6373 -2H-28.2373V26H-32.6373V-2ZM-24.942 -2H-19.422L-15.142 14.76H-15.062V-2H-11.142V26H-15.662L-20.942 5.56H-21.022V26H-24.942V-2ZM16.9141 24.1641L28.9844 12.0938L16.9141 0.0234375L14.2969 2.62109L21.9922 10.2578H-0.078125V13.9297H21.9922L14.2969 21.5664C14.2969 21.5664 14.4271 21.6966 14.6875 21.957C14.9609 22.2174 15.2669 22.5234 15.6055 22.875C15.944 23.2135 16.2435 23.513 16.5039 23.7734C16.7773 24.0339 16.9141 24.1641 16.9141 24.1641Z" fill="#05203D"/>
</g>
<defs>
<clipPath id="clip0_72_704">
<rect width="29" height="25" fill="white"/>
</clipPath>
</defs>
</svg>
