<svg width="70" height="80" viewBox="0 0 70 80" fill="none" xmlns="http://www.w3.org/2000/svg">
<g clip-path="url(#clip0_0_293)">
<path d="M13.327 13.5443H4.80464V22.4707H14.7324V25.1868H1.77667V-2.7068e-05H14.568V2.73254H4.80464V10.8282H13.326L13.327 13.5443ZM25.5061 20.3247L31.016 -2.7068e-05H34.3418L26.8463 25.1858H24.1989L16.719 -2.7068e-05H20.0282L25.5061 20.3247ZM49.1683 13.5443H40.6469V22.4707H50.5747V25.1868H37.6179V-2.7068e-05H50.4092V2.73254H40.6469V10.8282H49.1683V13.5443ZM61.7445 14.9977H57.5045V25.1858H54.4631V-2.7068e-05H61.215C62.195 -0.0704305 63.1789 0.065748 64.1026 0.399637C65.0263 0.733526 65.8691 1.25763 66.576 1.93782C67.8916 3.51181 68.544 5.53277 68.3961 7.57612C68.4289 8.99986 68.0866 10.4073 67.4033 11.658C66.7704 12.7945 65.7991 13.7071 64.6235 14.2699L69.2896 24.9776V25.1837H66.03L61.7445 14.9977ZM57.5045 12.2816H61.1778C61.7462 12.306 62.313 12.2038 62.8368 11.9823C63.3606 11.7608 63.8283 11.4257 64.2057 11.0014C65.0024 10.0422 65.4084 8.81965 65.3433 7.57612C65.3433 4.34638 63.9424 2.73151 61.1405 2.73151H57.5003L57.5045 12.2816Z" fill="#05203D"/>
<path d="M4.3496 75.5399H1.13756V78.8611H4.88011V79.8712H0V70.4995H4.81703V71.5158H1.13756V74.5287H4.34339L4.3496 75.5399ZM16.6104 79.8691H15.4646L11.8306 72.6486V79.8712H10.6837V70.4995H11.8306L15.4759 77.754V70.4995H16.6135L16.6104 79.8691ZM28.6064 78.7044L28.4068 78.9621C28.0949 79.3156 27.7055 79.5929 27.2689 79.7725C26.8322 79.9522 26.36 80.0293 25.8887 79.998C25.4518 80.0186 25.0161 79.9388 24.6151 79.7647C24.2141 79.5906 23.8587 79.3269 23.5764 78.994C22.9713 78.1698 22.6696 77.1629 22.7222 76.1429V74.302C22.646 73.2629 22.9129 72.2276 23.4823 71.354C23.7569 71.0203 24.1077 70.757 24.5053 70.5859C24.9028 70.4148 25.3357 70.341 25.7677 70.3706C26.1388 70.3491 26.5103 70.4043 26.8589 70.5327C27.2075 70.6611 27.5258 70.86 27.7936 71.1169C28.3189 71.7026 28.6075 72.4618 28.6033 73.2475H27.4658C27.4528 72.7548 27.2873 72.2781 26.9921 71.8827C26.8423 71.7115 26.6544 71.5776 26.4434 71.4915C26.2325 71.4054 26.0043 71.3696 25.777 71.3869C25.5011 71.3657 25.2244 71.4155 24.9734 71.5316C24.7224 71.6477 24.5056 71.8261 24.3437 72.0497C23.9892 72.6925 23.8249 73.4224 23.8701 74.1546V76.0666C23.8228 76.8277 24.005 77.5855 24.3933 78.2426C24.5577 78.486 24.7822 78.6833 25.0452 78.8152C25.3082 78.9472 25.6008 79.0095 25.8949 78.9961C26.4055 79.0323 26.9097 78.8656 27.2972 78.5322L27.4658 78.3714V76.2068H25.8111V75.2029H28.6095L28.6064 78.7044ZM35.9561 78.859H39.5145V79.8691H34.8092V70.4974H35.9561V78.859ZM46.4092 79.8691H45.2716V70.4974H46.4092V79.8691ZM56.7133 77.4984C56.7265 77.3038 56.7007 77.1086 56.6375 76.924C56.5743 76.7394 56.475 76.5692 56.3452 76.4233C55.9575 76.0928 55.5059 75.8452 55.0184 75.6956C54.4955 75.5195 54.0004 75.2704 53.5478 74.9555C53.2323 74.7183 52.9729 74.415 52.7877 74.0669C52.6166 73.7097 52.5312 73.3176 52.5385 72.9218C52.527 72.5835 52.5845 72.2464 52.7077 71.931C52.8309 71.6156 53.0172 71.3284 53.2552 71.087C53.504 70.8448 53.7999 70.6559 54.1246 70.5318C54.4493 70.4078 54.7961 70.3511 55.1435 70.3654C55.6426 70.3567 56.1344 70.4858 56.5644 70.7386C56.977 70.98 57.3104 71.3356 57.5241 71.7622C57.7507 72.2093 57.866 72.7043 57.8602 73.2052H56.7102C56.7408 72.723 56.597 72.2457 56.3049 71.8601C56.1591 71.6983 55.9786 71.5715 55.7768 71.489C55.575 71.4066 55.3571 71.3706 55.1394 71.3839C54.9427 71.3718 54.7457 71.4011 54.5612 71.4699C54.3766 71.5386 54.2086 71.6452 54.068 71.7828C53.7988 72.0917 53.6622 72.4937 53.6875 72.9022C53.6833 73.0871 53.718 73.2708 53.7892 73.4415C53.8604 73.6123 53.9667 73.7663 54.1011 73.8938C54.4717 74.2154 54.9042 74.4584 55.3721 74.6081C56.0976 74.8106 56.7572 75.199 57.2852 75.7347C57.6879 76.228 57.8941 76.8518 57.8643 77.487C57.8795 77.8248 57.8236 78.162 57.7002 78.4769C57.5768 78.7919 57.3886 79.0776 57.1477 79.3156C56.6136 79.7911 55.9124 80.0365 55.1973 79.998C54.6873 80.0035 54.1839 79.8831 53.7319 79.6475C53.2957 79.4149 52.9316 79.0677 52.6792 78.6436C52.4204 78.1909 52.2889 77.6771 52.2986 77.1562H53.4455C53.4304 77.4011 53.4639 77.6467 53.5441 77.8787C53.6243 78.1108 53.7496 78.3248 53.9129 78.5085C54.0819 78.6727 54.2832 78.8003 54.504 78.8833C54.7249 78.9663 54.9606 79.003 55.1963 78.9909C55.4033 79.0069 55.6113 78.9796 55.8072 78.9109C56.0031 78.8422 56.1824 78.7336 56.3338 78.592C56.5983 78.2924 56.7335 77.9009 56.7102 77.5025L56.7133 77.4984ZM69.6474 79.8691H68.4984V75.5399H64.8458V79.8691H63.7031V70.4974H64.8407V74.5267H68.4933V70.4974H69.6401L69.6474 79.8691Z" fill="#05203D"/>
<path d="M30.2124 56.0264C25.6622 60.8091 15.8461 64.7951 8.66401 60.0124C2.00207 55.5801 0.763171 48.0554 2.91832 43.2717C5.68568 37.1396 10.119 35.0678 13.693 34.5019C18.721 33.7051 24.4667 35.2987 29.4947 40.0825C32.8609 43.2851 35.5858 48.3935 38.832 53.635C46.9707 66.7732 66.1261 63.9983 68.2802 49.649C68.9483 45.2033 67.2812 39.9093 61.097 36.0965C54.6326 32.1105 47.4464 34.5019 40.2674 40.8792" stroke="#8AEEEE" stroke-width="3" stroke-linecap="round" stroke-linejoin="round"/>
</g>
<defs>
<clipPath id="clip0_0_293">
<rect width="70" height="80" fill="white"/>
</clipPath>
</defs>
</svg>
